<svg width="70" height="70" viewBox="0 0 70 70" fill="none" xmlns="http://www.w3.org/2000/svg">
<g clip-path="url(#clip0)">
<path d="M25.3638 43.713C24.6939 42.5552 23.4469 41.836 22.1095 41.836H17.1582V38.8657C19.4929 38.4096 21.3282 36.4293 21.517 33.9853C21.5606 33.4206 21.1383 32.9276 20.5737 32.8839C20.0054 32.8385 19.516 33.2627 19.4723 33.8271C19.3385 35.5582 17.8718 36.9141 16.1329 36.9141C14.2858 36.9141 12.7832 35.4115 12.7832 33.5645C12.7832 31.7174 14.2858 30.2149 16.1329 30.2149C16.722 30.2149 17.3008 30.3696 17.807 30.6623C18.2972 30.9458 18.9245 30.7784 19.2079 30.2881C19.4915 29.798 19.324 29.1707 18.8337 28.8872C18.3137 28.5864 17.7464 28.3765 17.1582 28.2631V25.2723C18.5435 24.8358 19.5508 23.5393 19.5508 22.0117C19.5508 20.4819 18.5405 19.1836 17.152 18.7489L17.1726 16.6178C17.1759 16.2761 17.4177 15.9876 17.7606 15.916C21.4518 15.1461 24.1309 11.8338 24.1309 8.04031C24.1309 3.68472 20.4821 0.00274902 16.1631 -0.00012207C16.1613 -0.00012207 16.1601 -0.00012207 16.1584 -0.00012207C13.0452 1.46484e-05 10.1459 1.97478 8.77178 5.03195C8.53963 5.54847 8.77014 6.1555 9.28666 6.38765C9.80332 6.61939 10.4101 6.38943 10.6424 5.87277C11.6862 3.55074 13.851 2.0508 16.1584 2.0508H16.1617C19.0198 2.05271 22.0801 4.45978 22.0801 8.04044C22.0801 10.8681 20.0874 13.336 17.3419 13.9087C16.0477 14.1787 15.1348 15.2845 15.122 16.5981L15.101 18.7535C13.7191 19.1919 12.7149 20.4866 12.7149 22.0117C12.7149 23.5393 13.7222 24.8358 15.1075 25.2723V28.2629C12.6185 28.7435 10.7325 30.9373 10.7325 33.5645C10.7325 36.1917 12.6185 38.3854 15.1075 38.866V41.836H10.1562C8.81881 41.836 7.57179 42.5552 6.90174 43.713L0.929861 54.0354C0.258162 55.1967 0.258162 56.6395 0.929861 57.8009L6.90187 68.1231C7.57179 69.2807 8.81881 70 10.1562 70H22.1095C23.4469 70 24.6939 69.2807 25.364 68.123L31.3358 57.8006C32.0075 56.6393 32.0075 55.1965 31.3358 54.0351L25.3638 43.713ZM16.1329 20.6445C16.8867 20.6445 17.5 21.2579 17.5 22.0117C17.5 22.7656 16.8867 23.3789 16.1329 23.3789C15.379 23.3789 14.7657 22.7656 14.7657 22.0117C14.7657 21.2579 15.379 20.6445 16.1329 20.6445ZM29.5605 56.7738L23.5888 67.0961C23.2842 67.6223 22.7174 67.9492 22.1095 67.9492H10.1562C9.54834 67.9492 8.98137 67.6222 8.67703 67.0961L2.70515 56.774C2.39986 56.246 2.39986 55.5901 2.70515 55.0621L8.67689 44.7399C8.9815 44.2136 9.54834 43.8867 10.1562 43.8867H22.1095C22.7174 43.8867 23.2843 44.2138 23.5887 44.7399L29.5605 55.062C29.8658 55.5901 29.8658 56.2458 29.5605 56.7738Z" fill="#333333"/>
<path d="M21.2435 49.4465C20.8174 48.7087 20.0235 48.2502 19.1715 48.2502H13.0938C12.2418 48.2502 11.4478 48.7087 11.0218 49.4465L7.98296 54.7102C7.55695 55.4481 7.55695 56.3649 7.98296 57.1028L8.46326 57.9346C8.74654 58.4251 9.37367 58.5927 9.86394 58.3099C10.3544 58.0267 10.5224 57.3996 10.2392 56.9092L9.75894 56.0774C9.6981 55.972 9.6981 55.841 9.75894 55.7356L12.7978 50.4719C12.8586 50.3665 12.972 50.301 13.0938 50.301H19.1713C19.2932 50.301 19.4065 50.3665 19.4673 50.4719L22.5062 55.7356C22.567 55.841 22.567 55.972 22.5062 56.0774L19.4673 61.3411C19.4065 61.4465 19.2932 61.512 19.1713 61.512H13.0938C12.8366 61.5342 12.7174 61.1811 12.6072 61.0109C12.3239 60.5201 11.6968 60.3529 11.2065 60.6353C10.716 60.9185 10.5479 61.5456 10.831 62.036L11.0218 62.3665C11.4478 63.1043 12.2418 63.5627 13.0938 63.5627H19.1713C20.0234 63.5627 20.8173 63.1043 21.2433 62.3665L24.2822 57.1028C24.7082 56.3649 24.7082 55.4481 24.2822 54.7102L21.2435 49.4465Z" fill="#333333"/>
<path d="M69.0701 54.0352L67.3312 51.0296C67.0476 50.5393 66.4203 50.372 65.9301 50.6556C65.4399 50.9391 65.2723 51.5664 65.556 52.0567L67.2949 55.0621C67.6002 55.5901 67.6002 56.246 67.2949 56.774L61.3232 67.0963C61.0186 67.6225 60.4517 67.9494 59.8439 67.9494H47.8906C47.2827 67.9494 46.7157 67.6224 46.4114 67.0963L40.4395 56.7741C40.1342 56.2461 40.1342 55.5903 40.4395 55.0623L46.4113 44.74C46.7159 44.2138 47.2827 43.8869 47.8906 43.8869H59.8439C60.4517 43.8869 61.0187 44.2139 61.323 44.74L63.183 47.9551C63.4667 48.4454 64.0939 48.6127 64.5841 48.3292C65.0742 48.0456 65.2418 47.4183 64.9581 46.9281L63.0981 43.713C62.4283 42.5552 61.1813 41.836 59.8439 41.836H54.8926V38.866C57.3816 38.3855 59.2676 36.1917 59.2676 33.5645C59.2676 30.9373 57.3816 28.7435 54.8926 28.2629V25.2724C56.2779 24.8358 57.2852 23.5393 57.2852 22.0117C57.2852 20.4819 56.2748 19.1836 54.8863 18.749L54.907 16.6178C54.9103 16.2761 55.1521 15.9876 55.495 15.916C59.1861 15.1461 61.8653 11.8339 61.8653 8.04032C61.8653 7.73585 61.8478 7.42933 61.8135 7.12936C61.7489 6.56677 61.2405 6.16208 60.678 6.22729C60.1154 6.29183 59.7115 6.80001 59.7759 7.36274C59.8015 7.5856 59.8144 7.81364 59.8144 8.04032C59.8144 10.8679 57.8217 13.3359 55.0761 13.9086C53.7819 14.1786 52.869 15.2844 52.8562 16.598L52.8353 18.7533C51.4535 19.1919 50.4493 20.4867 50.4493 22.0117C50.4493 23.5393 51.4566 24.8358 52.8418 25.2724V28.2629C50.3529 28.7435 48.4668 30.9373 48.4668 33.5645C48.4668 36.1917 50.3529 38.3855 52.8418 38.866V41.836H47.8906C46.5532 41.836 45.3062 42.5552 44.6361 43.713L38.6642 54.0354C37.9925 55.1967 37.9925 56.6395 38.6642 57.8009L44.6362 68.1232C45.306 69.2809 46.5532 70.0002 47.8906 70.0002H59.8439C61.1813 70.0002 62.4283 69.2809 63.0983 68.1232L69.0702 57.8008C69.7418 56.6393 69.7418 55.1967 69.0701 54.0352ZM53.8672 20.6446C54.6211 20.6446 55.2344 21.2579 55.2344 22.0117C55.2344 22.7656 54.6211 23.3789 53.8672 23.3789C53.1134 23.3789 52.5 22.7656 52.5 22.0117C52.5 21.2579 53.1134 20.6446 53.8672 20.6446ZM50.5176 33.5645C50.5176 31.7174 52.0202 30.2149 53.8672 30.2149C55.7143 30.2149 57.2168 31.7174 57.2168 33.5645C57.2168 35.4116 55.7143 36.9141 53.8672 36.9141C52.0202 36.9141 50.5176 35.4116 50.5176 33.5645Z" fill="#333333"/>
<path d="M47.0209 6.38764C47.5252 6.61787 48.1439 6.39461 48.3766 5.87275C49.4204 3.55072 51.5852 2.05078 53.8925 2.05078H53.8959C55.361 2.05174 56.844 2.66998 57.9648 3.74705C58.3733 4.13971 59.0224 4.12631 59.4145 3.71834C59.8069 3.30996 59.7941 2.66096 59.3858 2.26857C57.887 0.828242 55.8865 0.00136719 53.8973 0C53.8955 0 53.8943 0 53.8926 0C50.7794 0 47.8801 1.97477 46.5061 5.03193C46.2738 5.54846 46.5043 6.15535 47.0209 6.38764Z" fill="#333333"/>
<path d="M56.9059 48.2502H50.8283C49.9763 48.2502 49.1824 48.7087 48.7564 49.4465L45.7175 54.7102C45.2915 55.4481 45.2915 56.3649 45.7175 57.1028L48.7564 62.3665C49.1824 63.1043 49.9763 63.5627 50.8283 63.5627H56.9059C57.7579 63.5627 58.5519 63.1043 58.9779 62.3665L62.0167 57.1028C62.4427 56.3649 62.4427 55.4481 62.0167 54.7102L58.9779 49.4465C58.5519 48.7087 57.7579 48.2502 56.9059 48.2502ZM60.2406 56.0774L57.2018 61.3411C57.1409 61.4465 57.0276 61.512 56.9058 61.512H50.8282C50.7064 61.512 50.593 61.4465 50.5322 61.3411L47.4934 56.0774C47.4325 55.972 47.4325 55.841 47.4934 55.7356L50.5322 50.4719C50.593 50.3665 50.7064 50.301 50.8282 50.301H56.9058C57.0276 50.301 57.1409 50.3665 57.2018 50.4719L60.2406 55.7356C60.3014 55.8411 60.3014 55.972 60.2406 56.0774Z" fill="#333333"/>
</g>
<defs>
<clipPath id="clip0">
<rect width="70" height="70" fill="white"/>
</clipPath>
</defs>
</svg>
